<svg width="41" height="41" viewBox="0 0 41 41" fill="none" xmlns="http://www.w3.org/2000/svg">
<path fill-rule="evenodd" clip-rule="evenodd" d="M20.5218 37.5258C29.7614 37.5258 37.2516 30.0356 37.2516 20.796C37.2516 11.5564 29.7614 4.06616 20.5218 4.06616C11.2822 4.06616 3.79199 11.5564 3.79199 20.796C3.79199 30.0356 11.2822 37.5258 20.5218 37.5258ZM26.992 17.8562C26.992 17.8562 26.3823 17.0688 26.1602 16.7835C26.1252 16.739 26.0875 16.696 26.0418 16.6596C25.9853 16.6152 25.9166 16.5829 25.8439 16.5762C25.7319 16.5655 25.6357 16.6249 25.5448 16.681L25.5424 16.6825C25.49 16.7148 25.4389 16.7498 25.3877 16.7848L25.3877 16.7848L25.3877 16.7848L22.1049 18.9921C21.8492 11.0571 21.7752 11.0652 21.7752 11.0652C21.7671 11.0208 21.7523 10.9764 21.7308 10.9373C21.6487 10.7893 21.4777 10.7745 21.3256 10.7718L21.26 10.7696C21.1944 10.7673 21.1288 10.7651 21.0632 10.7651C20.8923 10.7651 20.72 10.7651 20.549 10.7664C20.4637 10.7664 20.3784 10.7661 20.293 10.7657C20.2072 10.7654 20.1212 10.7651 20.0349 10.7651H19.8007C19.7482 10.7651 19.6957 10.7665 19.6432 10.768C19.6082 10.7689 19.5732 10.7699 19.5382 10.7704C19.3862 10.7731 19.2152 10.7879 19.1331 10.936C19.1116 10.975 19.0968 11.0194 19.0887 11.0639C19.0887 11.0639 19.016 11.0558 18.759 18.9908L15.4762 16.7835L15.4762 16.7835C15.4251 16.7485 15.3739 16.7135 15.3214 16.6812L15.3206 16.6807C15.228 16.6243 15.1313 16.5655 15.02 16.5748C14.9473 16.5816 14.8786 16.6139 14.8221 16.6583C14.7763 16.6933 14.74 16.7377 14.7037 16.7821L14.7037 16.7821L13.8719 17.8562C13.7131 18.0513 13.6942 18.2519 13.8221 18.4107C13.8948 18.5009 13.9917 18.6045 14.129 18.7364C14.4749 19.0662 14.8235 19.3919 15.1761 19.7149C15.5314 20.0379 15.8894 20.3569 16.2515 20.6719C16.6135 20.9855 16.981 21.2964 17.3511 21.6019C17.7212 21.9074 18.0954 22.2089 18.475 22.5064L18.7415 22.719L18.7494 22.7253L18.7494 22.7253C19.0013 22.9252 19.261 23.1314 19.5221 23.3085C19.5921 23.3556 19.6621 23.4028 19.7334 23.4485C19.8007 23.4902 19.868 23.5306 19.938 23.5683C20.0026 23.6019 20.0685 23.6329 20.1372 23.6585C20.2004 23.6814 20.2664 23.7002 20.3337 23.7096C20.4118 23.7204 20.4885 23.7177 20.5652 23.7042C20.6325 23.6908 20.6984 23.6706 20.7617 23.645C20.8303 23.6181 20.8976 23.5845 20.9622 23.5495C21.0322 23.5104 21.1009 23.4687 21.1682 23.4256C21.1971 23.4068 21.226 23.3876 21.255 23.3685L21.2554 23.3681C21.2842 23.3491 21.313 23.33 21.3418 23.3112C21.6029 23.1341 21.8626 22.9279 22.1146 22.728L22.1224 22.7217L22.3889 22.5091C22.7685 22.2116 23.1426 21.9101 23.5128 21.6046C23.8829 21.2991 24.249 20.9882 24.6124 20.6746C24.9745 20.361 25.3338 20.0406 25.6878 19.7176C26.0404 19.3959 26.389 19.0689 26.7349 18.7391C26.8709 18.6085 26.9678 18.5049 27.0418 18.4134C27.1697 18.2519 27.1508 18.05 26.992 17.8562ZM28.1286 26.4613C28.1286 27.7816 27.0582 28.852 25.7379 28.852L15.2992 28.852C13.9789 28.852 12.9085 27.7816 12.9085 26.4613V24.8052C12.9085 24.277 13.3367 23.8489 13.8648 23.8489H14.6658C15.1939 23.8489 15.6221 24.277 15.6221 24.8052V25.1822C15.6221 25.7103 16.0502 26.1384 16.5783 26.1384H24.4588C24.9869 26.1384 25.415 25.7103 25.415 25.1822V24.8052C25.415 24.277 25.8432 23.8489 26.3713 23.8489H27.1723C27.7004 23.8489 28.1286 24.277 28.1286 24.8052V26.4613Z" fill="black"/>
</svg>
